<?xml version="1.0" encoding="UTF-8" standalone="yes"?>
<svg version="1.2" baseProfile="tiny-ps" viewBox="0 0 300 300" xmlns="http://www.w3.org/2000/svg">
  <title>bimi-svg-tiny-12-ps</title>
  <g>
    <g fill="#dfe4f1" transform="matrix(.1 0 0 -.1 0 300)">
      <path d="M0 1500V0h3000v3000H0V1500z"/>
    </g>
    <g fill="#7dbebd" transform="matrix(.1 0 0 -.1 0 300)">
      <path d="M0 1500V0h3000v3000H0V1500zm2418 1436 28-14 14-27 14-26-1-33-1-34-16-25-17-25-30-12-29-13-40 7-40 6-98-81c-53-44-107-86-120-92l-23-10-10 10-11 11 9 16c4 8 54 56 111 106l102 91v91l34 34 34 34h31c18 0 44-6 59-14zm-255-36 27-30v-76l-16-23-17-23-34-14-34-15-34 7-33 6-30-22-30-22-11 6c-16 10-14 20 12 52l22 29-3 47-4 48 36 36 37 37 42-6 42-6 28-31zm310-390 27-30v-80l-29-32-28-32-39 1c-22 1-54 4-72 8l-32 7-26-17-26-17-15 15-15 15 36 28 36 29v72l21 27c12 15 31 32 43 37l21 9 35-5 35-4 28-31zm272-124 34-14 15-31c19-36 20-71 4-106l-12-26-27-15c-34-17-79-18-113-2l-26 11-105-48-106-49-10 15c-5 7-9 16-9 19 0 6 50 36 153 94l47 27v25c0 14 8 39 17 55l17 28 30 15c39 19 48 19 91 2zm-410 488-16-17 3-25 3-25 20-7 20-7 23 8 22 8v50l-16 15c-20 20-38 20-59 0zm-285-14c-24-24-24-29-4-58l15-22h23c28 0 46 18 46 45v22l-18 16c-24 22-38 21-62-3zm318-381-18-10v-58l21-12 22-11 23 11 24 11v47l-18 16c-21 19-30 20-54 6zm315-150-21-8-6-19c-13-40 21-71 63-57l20 6 6 19 6 19-10 19c-13 25-31 31-58 21z"/>
    </g>
    <g fill="#1f9f98" transform="matrix(.1 0 0 -.1 0 300)">
      <path d="M0 1500V0h3000v3000H0V1500zm2408 1445 38-16 17-28 17-29v-64l-17-29-17-29-41-16-41-15-27 10-28 11-202-168c-222-184-285-232-303-232-7 0-25 16-40 36l-28 36 15 9c8 5 31 9 51 9h38l32 29 32 29-12 71c-7 39-12 84-12 99v27l49 42 48 42-5 50-4 51 35 35 35 35h89l26-20 26-20 11-35 12-35-12-35-11-35-26-20-26-20h-99l-40-32-40-31 6-46c3-25 10-49 14-53l8-8 100 88c55 48 117 101 138 119l39 32 2 44 1 45 18 27 18 27 31 13c40 18 39 18 85 0zm55-415 26-20 11-35 12-35-7-29-6-28-23-22c-13-12-36-25-53-30l-30-9-38 14-39 13-25-18c-64-45-315-191-328-191h-15l-22 27c-11 14-29 39-39 54l-19 29 58 60c31 33 60 60 63 60s25-18 49-40 47-40 53-40 50 26 98 58l89 57 5 45 5 44 31 28 31 28h87l26-20zm296-144 27-15 18-40 18-40-6-25c-3-13-18-38-32-55l-25-30-36-7-35-7-34 17-34 16-181-91c-195-97-326-159-340-159-4 0-22 20-39 45l-32 46 12 14c15 18 120 88 125 83 1-1 10-20 19-41l16-38 62 34c35 19 117 63 183 97s126 67 133 73l12 9v60l34 34 34 34h73l28-14zm-425 480c-3-8-4-25-2-38l3-23 27-3 27-3 11 20 11 21-11 20-11 20h-50l-5-14zm-282-8c-27-27-6-68 35-68h22l10 18 10 19-15 21-15 22h-18c-9 0-22-5-29-12zm310-390c-27-27-6-68 35-68h22l11 19c13 25 13 27-6 45-18 19-45 21-62 4zm308-152-12-15 4-23 3-23h70l3 23 4 23-12 15c-7 7-20 14-30 14s-23-7-30-14z"/>
    </g>
    <g fill="#0676cc" transform="matrix(.1 0 0 -.1 0 300)">
      <path d="M0 1500V0h3000v3000H0V1500zm2408 1445 38-16 17-28 17-29v-64l-17-29-17-29-41-16-41-15-28 11-29 11-21-19c-12-11-138-117-281-237-143-119-264-222-269-229l-9-13 18-26 17-27h29l95 90c51 50 98 90 103 90 4 0 29-18 55-41 25-22 50-39 54-37 4 1 47 28 94 58l86 55 5 45 5 44 31 28 31 28h87l26-20 26-20 11-35 12-35-7-29-6-28-23-22c-13-12-36-25-53-30l-30-9-37 13-38 13-211-134c-117-74-216-140-221-147l-9-14 18-26 17-27h15c7 0 46 22 86 48 40 27 91 61 114 75l42 27 12-40 12-40h10c12 0 356 177 375 192l12 10v60l34 34 34 34h73l28-14 27-15 18-40 18-40-6-25c-3-13-18-38-32-55l-25-30-36-7-35-7-34 17-34 16-325-163-324-162v-13c-1-15 37-92 45-92 2 0 27 11 54 25s52 25 56 25c17 0-25-35-61-50-22-10-70-31-106-49-36-17-75-31-86-31h-20l-63 43c-35 23-69 46-75 51l-12 9-67-46c-37-26-72-47-79-46-12 0-50 48-152 189-27 38-72 94-98 124-27 30-47 59-45 64 7 19 316 262 332 262 3 0 6-19 6-43v-43l16-47c8-25 22-52 31-59l15-13-8 55c-12 73-10 142 5 179l13 30 35 16c19 9 58 19 88 22l53 6 28 22 27 22-15 94-15 94 52 47 52 48-5 50-4 50 35 35 35 35h89l26-20 26-20 11-35 12-35-12-35-11-35-26-20-26-20h-99l-40-32-40-31 6-46c3-25 10-49 14-53l8-8 100 88c55 48 117 101 138 119l39 32 2 44 1 45 18 27 18 27 31 13c40 18 39 18 85 0zm-698-1330 12-15-33-14-34-14-14 11-13 11 22 18c27 22 44 23 60 3zm624 1251c-3-8-4-25-2-38l3-23 27-3 27-3 11 20 11 21-11 20-11 20h-50l-5-14zm-282-8c-27-27-6-68 35-68h22l10 18 10 19-15 21-15 22h-18c-9 0-22-5-29-12zm310-390c-27-27-6-68 35-68h22l11 19c13 25 13 27-6 45-18 19-45 21-62 4zm308-152-12-15 4-23 3-23h70l3 23 4 23-12 15c-7 7-20 14-30 14s-23-7-30-14z"/>
    </g>
    <g fill="#286091" transform="matrix(.1 0 0 -.1 0 300)">
      <path d="M0 1500V0h3000v3000H0V1500zm2408 1445 38-16 17-28 17-29v-64l-17-29-17-29-41-16-41-15-28 11-29 11-21-19c-12-11-138-117-281-237-143-119-264-222-269-229l-9-13 18-26 17-27h29l95 90c51 50 98 90 103 90 4 0 29-18 55-41 25-22 50-39 54-37 4 1 47 28 94 58l86 55 5 45 5 44 31 28 31 28h87l26-20 26-20 11-35 12-35-7-29-6-28-23-22c-13-12-36-25-53-30l-30-9-37 13-38 13-211-134c-117-74-216-140-221-147l-9-14 18-26 17-27h15c7 0 46 22 86 48 40 27 91 61 114 75l42 27 12-40 12-40h10c12 0 356 177 375 192l12 10v60l34 34 34 34h73l28-14 27-15 18-40 18-40-6-25c-3-13-18-38-32-55l-25-30-36-7-35-7-34 17-34 16-325-163-324-162v-13c-1-15 37-92 45-92 2 0 27 11 54 25s52 25 56 25c17 0-25-35-61-50-22-10-70-31-106-49-36-17-75-31-86-31h-20l-63 43c-35 23-69 46-75 51l-12 9-67-46c-37-26-72-47-79-46-12 0-50 48-152 189-27 38-72 94-98 124-27 30-47 59-45 64 7 19 316 262 332 262 3 0 6-19 6-43v-43l16-47c8-25 22-52 31-59l15-13-8 55c-12 73-10 142 5 179l13 30 35 16c19 9 58 19 88 22l53 6 28 22 27 22-15 94-15 94 52 47 52 48-5 50-4 50 35 35 35 35h89l26-20 26-20 11-35 12-35-12-35-11-35-26-20-26-20h-99l-40-32-40-31 6-46c3-25 10-49 14-53l8-8 100 88c55 48 117 101 138 119l39 32 2 44 1 45 18 27 18 27 31 13c40 18 39 18 85 0zM975 2356c44-15 96-36 115-47l35-20-30 6c-16 4-54 11-85 17l-55 10-50-6-50-7-52-25-52-25-27-32c-15-18-39-57-53-87l-26-55 1-115v-115l23-83 24-84 58-115 58-115 73-96c168-224 369-380 578-449l55-18h190l45 21c25 12 60 37 79 55l34 34 26 55 25 55 5 105 4 105 14-50 14-50 6-115 6-115-16-62c-9-35-27-84-41-111l-24-48-45-41-44-41-49-22-49-22-90-5-91-6-54 12c-138 30-328 126-464 236-39 30-75 54-80 52-16-5-94-124-123-187-14-30-34-82-43-115l-18-60-7 29-8 28 6 84 6 84h-10c-6 0-19-21-31-47l-21-47-5-62-5-62 22-70 21-69 40-61c23-34 64-82 93-108l52-47 71-33 70-33 105-21 104-22 203 4 204 4-21-8c-12-4-86-18-164-30l-142-21-225-1-225-1-75 14c-110 20-226 58-300 99l-65 36-55 56-56 55-27 49c-15 27-35 74-43 105l-17 55 1 90v91l16 70c40 170 152 395 278 556 15 20 28 44 28 52s-15 46-34 83c-44 92-82 188-103 266l-18 63v310l27 57c52 111 109 164 215 199l58 19 100-4 100-4 80-26zm735-741 12-15-33-14-34-14-14 11-13 11 22 18c27 22 44 23 60 3zm624 1251c-3-8-4-25-2-38l3-23 27-3 27-3 11 20 11 21-11 20-11 20h-50l-5-14zm-282-8c-27-27-6-68 35-68h22l10 18 10 19-15 21-15 22h-18c-9 0-22-5-29-12zm310-390c-27-27-6-68 35-68h22l11 19c13 25 13 27-6 45-18 19-45 21-62 4zm308-152-12-15 4-23 3-23h70l3 23 4 23-12 15c-7 7-20 14-30 14s-23-7-30-14zM487 1178c-53-79-112-175-131-215l-36-72-26-97-26-98 4-105 4-106 23-51 22-51 35-33c18-19 36-31 39-28s-3 39-15 79l-20 74v160l15 64c9 35 29 95 46 135l32 71 62 90c35 50 86 112 114 140 28 27 51 55 51 63 0 16-77 122-89 122-5 0-52-64-104-142z"/>
    </g>
    <g fill="#191e3a" transform="matrix(.1 0 0 -.1 0 300)">
      <path d="M0 1500V0h3000v3000H0V1500zm2431 1437 34-23 15-41 14-42-17-36-17-35-32-20-33-21-47 3-48 3-280-234-280-234v-13c0-6 8-22 18-34l19-23 103 96c57 54 107 97 110 97 4 0 26-18 50-40s48-40 54-40c5 0 46 23 90 52 45 29 82 53 84 54s5 19 8 39l5 38 19 28 20 28 36 11 37 12 39-11 39-12 19-32 20-32v-32c0-17-4-43-10-57l-10-26-32-20-33-21-35 4c-19 3-44 8-55 11l-20 6-180-114c-99-63-197-125-217-140l-37-25 17-31c19-33 28-36 51-17 30 25 209 137 220 137h10l7-35 6-35h15c8 0 95 42 193 93l178 92 6 36 6 36 20 26 21 26 34 10 35 9 34-9 35-10 25-30 26-31v-69l-15-29c-8-16-25-36-37-44l-22-16h-86l-19 11-18 12-321-159-320-159-1-18c-1-23 27-77 40-77 5 0 36 14 69 30 33 17 60 27 60 22 0-19-51-52-155-101l-109-52-28 6-28 7-62 45-62 46-20-13c-37-23-399-297-469-355-73-60-83-82-20-45 21 13 139 81 262 152l224 128 24-22c13-12 23-24 23-28s-24-20-52-35c-29-16-112-69-185-117-114-76-182-127-313-235l-28-23-72 75c-40 40-99 109-132 152l-58 78-48 93-47 93 100 97c151 146 320 289 518 438 98 74 182 134 185 134 4 0 8-26 8-57l1-58 21-40 21-40-5 90-5 90 18 35 18 35 35 17 35 18h91l31 28 32 27-16 91-16 90 52 49 52 49-6 33-6 32 15 35 15 36 33 20c39 24 69 25 112 5l32-15 17-29 17-29v-63l-15-29-15-30-31-15-30-16-46 2-46 3-32-36-33-36 8-37c5-20 11-39 13-42 3-3 27 15 54 39 26 24 87 77 136 117l87 73v79l15 29 15 29 28 15c15 9 41 15 58 16h31l34-23zM869 2390c103-17 255-77 316-124l20-16-75 26-75 27-100 1-100 1-54-30-54-30-33-45-33-45-15-56-16-55v-151l25-99 24-99 55-110 55-110 65-89c163-225 389-403 590-465l68-21h163l50 24 50 23 38 43c47 51 63 87 77 172l10 65-10 79c-6 43-12 88-15 99l-6 20 16-27c23-41 54-183 61-279l7-85-12-70-12-69-24-52-24-52-45-49-46-49-59-27-60-27-79-6-79-6-77 18c-166 36-352 132-489 252-20 18-42 33-47 33-16 0-100-135-132-211-15-36-33-90-39-119l-11-52-12 12-11 11v207l-7-4c-4-3-14-28-23-56l-15-52v-45c0-104 48-213 136-310l53-58 68-36 68-36 75-21 75-20 125-12 125-11 120 10c66 6 124 8 128 6l9-5-9-9c-23-23-405-69-574-69H961L848 65c-62 8-147 24-188 36l-74 20-78 41-77 40-47 41-48 42-38 59-38 60-20 64-20 64v183l20 81c38 158 112 315 242 505 32 47 58 91 58 98 0 6-15 42-34 79-49 98-83 195-106 297l-20 90v191l15 57c21 80 49 132 100 183l44 43 38 17c98 43 176 52 292 34zm1476 476-17-12 3-19c2-10 11-23 21-28l16-11 16 13c9 8 16 22 16 32v18l-19 10-18 10-18-13zm-285-10-12-15 4-23 3-23 18-3 18-4 14 12c8 7 15 21 15 31v18l-19 11c-25 13-26 13-41-4zm315-390-17-12 3-19c2-10 11-23 21-28l16-11 16 13c9 8 16 22 16 32v18l-19 10-18 10-18-13zm296-160-12-15 11-20 11-21h18c10 0 24 7 32 16l13 16-11 16c-5 10-19 18-30 20l-20 3-12-15zM494 1173C373 990 355 958 320 853l-29-89-9-80-9-79 8-67 8-66 21-45c11-24 35-57 52-73l31-29-7 20c-4 11-14 49-23 85l-15 65 5 95 6 95 21 65c46 135 137 283 235 380 30 30 55 60 55 67 0 15-68 113-79 113-3 0-47-62-97-137z"/>
    </g>
  </g>
</svg>